Patient4_TMGait_0pt4_02_right_32_GRF.mot
version=1
nRows=78
nColumns=19
inDegrees=no
endheader
time	F1x	F1y	F1z	M1x	M1y	M1z	F2x	F2y	F2z	M2x	M2y	M2z	EC1x	EC1y	EC1z	EC2x	EC2y	EC2z
42.22	-17.6032	820.8146	96.0715	-263.5815	-107.0318	909.9675	13.5208	18.0478	-6.2886	6.0081	3.8629	28.8794	-0.0592	0.0182	-0.0073	-0.0462	0.0165	0.9585
42.233	-14.5922	809.8469	92.6387	-259.4757	-102.1439	893.5302	9.0933	12.9489	-4.4024	4.3421	2.8302	20.3767	-0.0592	0.0182	-0.0073	-0.0462	0.0165	0.9585
42.246	-11.3875	794.4697	88.8018	-254.0636	-96.6972	872.1887	5.2966	8.63	-2.7715	2.936	1.9357	13.2098	-0.0592	0.0182	-0.0073	-0.0462	0.0165	0.9585
42.259	-8.0882	775.4933	84.6923	-247.6724	-90.8781	846.9982	2.3672	5.3562	-1.5072	1.8771	1.2423	7.7855	-0.0592	0.0182	-0.0073	-0.0462	0.0165	0.9585
42.272	-4.7357	754.5076	80.4847	-240.8405	-84.8984	819.7343	0.30197	3.1149	-0.62047	1.1594	0.762	4.0706	-0.0592	0.0182	-0.0073	-0.0462	0.0165	0.9585
42.285	-1.3209	733.5377	76.3264	-234.2226	-78.9259	792.5343	-1.0193	1.761	-0.064268	0.73091	0.47452	1.8205	-0.0592	0.0182	-0.0073	-0.0462	0.0165	0.9585
42.298	2.1705	714.7455	72.4096	-228.4988	-73.1563	767.6409	-1.763	1.0553	0.22918	0.50934	0.34783	0.65287	-0.0592	0.0182	-0.0073	-0.0462	0.0165	0.9585
42.311	5.7632	700.0876	68.8827	-224.2738	-67.7327	747.0632	-2.125	0.73769	0.33748	0.4063	0.34419	0.16991	-0.0592	0.0182	-0.0073	-0.0462	0.0165	0.9585
42.324	9.4683	691.0153	65.894	-221.9821	-62.7976	732.2764	-2.2475	0.55795	0.31625	0.33532	0.4342	-0.010107	-0.0592	0.0182	-0.0073	-0.0462	0.0165	0.9585
42.337	13.2774	688.3165	63.5191	-221.8382	-58.4287	724.0583	-2.2622	0.28697	0.22305	0.21514	0.58349	-0.22302	-0.0592	0.0182	-0.0073	-0.0462	0.0165	0.9585
42.35	17.1887	691.973	61.8003	-223.7972	-54.6687	722.3547	-2.2549	-0.29738	0.099523	-0.03398	0.7632	-0.78304	-0.0592	0.0182	-0.0073	-0.0462	0.0165	0.9585
42.363	21.187	701.1943	60.6906	-227.5692	-51.4856	726.3362	-2.2502	-1.3465	-0.017682	-0.47057	0.93431	-1.9024	-0.0592	0.0182	-0.0073	-0.0462	0.0165	0.9585
42.376	25.2533	714.5443	60.1153	-232.6585	-48.8254	734.5222	-2.2383	-2.9677	-0.11063	-1.135	1.0627	-3.7215	-0.0592	0.0182	-0.0073	-0.0462	0.0165	0.9585
42.389	29.3266	730.1052	59.9554	-238.4148	-46.6051	744.9879	-2.1681	-5.1857	-0.1521	-2.0319	1.0919	-6.2713	-0.0592	0.0182	-0.0073	-0.0462	0.0165	0.9585
42.402	33.3273	745.6555	60.1011	-244.0886	-44.7568	755.5491	-1.9314	-7.8403	-0.12323	-3.0976	0.95624	-9.3594	-0.0592	0.0182	-0.0073	-0.0462	0.0165	0.9585
42.415	37.1515	758.9282	60.4412	-248.9055	-43.2098	764.0101	-1.3753	-10.54	0.015368	-4.1748	0.55652	-12.5284	-0.0592	0.0182	-0.0073	-0.0462	0.0165	0.9585
42.428	40.6679	767.8088	60.9002	-252.1293	-41.9342	768.3572	-0.33527	-12.5547	0.29944	-4.9725	-0.2085	-14.9132	-0.0592	0.0182	-0.0073	-0.0462	0.0165	0.9585
42.441	43.7312	770.564	61.4357	-253.1491	-40.9414	766.9852	1.389	-12.7104	0.76698	-5.024	-1.4521	-15.1361	-0.0592	0.0182	-0.0073	-0.0462	0.0165	0.9585
42.454	46.1823	766.1682	62.0411	-251.5891	-40.2864	759.0156	3.957	-9.3381	1.4349	-3.6672	-3.2461	-11.2355	-0.0592	0.0182	-0.0073	-0.0462	0.0165	0.9585
42.467	47.8942	754.4862	62.6882	-247.3814	-39.9966	744.4378	7.4283	-0.28315	2.3079	-0.047787	-5.6021	-0.67728	-0.0592	0.0182	-0.0073	-0.0462	0.0165	0.9585
42.48	48.7511	736.2354	63.3024	-240.7608	-40.0539	724.0876	11.6805	16.9864	3.3285	6.8312	-8.387	19.5173	-0.0592	0.0182	-0.0073	-0.0462	0.0165	0.9585
42.493	48.6936	712.6859	63.719	-232.174	-40.3338	699.3125	16.274	45.0139	4.3641	17.9678	-11.2522	52.3527	-0.0592	0.0182	-0.0073	-0.0462	0.0165	0.9585
42.506	47.721	685.225	63.7086	-222.1296	-40.6311	671.5348	20.2961	85.6894	5.1458	34.0988	-13.5089	100.0812	-0.0592	0.0182	-0.0073	-0.0462	0.0165	0.9585
42.519	45.8846	654.9084	63.0073	-211.0467	-40.6884	641.7867	22.2128	139.2334	5.2483	55.2948	-14.0484	163.0151	-0.0592	0.0182	-0.0073	-0.0462	0.0165	0.9585
42.532	43.2835	622.2659	61.3786	-199.1866	-40.2513	610.5126	19.9833	202.9302	4.0592	80.4554	-11.3742	238.0431	-0.0592	0.0182	-0.0073	-0.0462	0.0165	0.9585
42.545	40.0897	587.436	58.6442	-186.6953	-39.0778	577.6855	12.6661	270.8416	0.90802	107.1693	-4.3781	318.3427	-0.0592	0.0182	-0.0073	-0.0462	0.0165	0.9585
42.558	36.5905	550.5165	54.7827	-173.7078	-37.0236	543.1361	1.8511	335.0946	-4.4258	132.2852	6.4594	394.6836	-0.0592	0.0182	-0.0073	-0.0462	0.0165	0.9585
42.571	33.1298	511.745	50.0005	-160.3822	-34.1281	506.7914	-10.0885	389.858	-11.295	153.501	19.4128	460.021	-0.0592	0.0182	-0.0073	-0.0462	0.0165	0.9585
42.584	29.9888	471.2416	44.7067	-146.7965	-30.6373	468.5008	-21.4608	433.7557	-18.7615	170.2878	32.7142	512.5807	-0.0592	0.0182	-0.0073	-0.0462	0.0165	0.9585
42.597	27.2133	428.9771	39.2974	-132.9372	-26.8732	428.0791	-31.1539	468.0743	-25.6476	183.2126	44.6059	553.7626	-0.0592	0.0182	-0.0073	-0.0462	0.0165	0.9585
42.61	24.667	385.0256	34.0435	-118.7966	-23.1132	385.5454	-38.8202	494.9949	-31.338	193.19	54.222	586.1098	-0.0592	0.0182	-0.0073	-0.0462	0.0165	0.9585
42.623	22.085	339.821	29.0486	-104.4663	-19.5313	341.3528	-44.3902	516.9387	-35.543	201.2152	61.2325	612.3677	-0.0592	0.0182	-0.0073	-0.0462	0.0165	0.9585
42.636	19.1753	294.1819	24.3724	-90.1528	-16.2811	296.3759	-47.9575	536.4375	-38.6934	208.2759	66.1573	635.3995	-0.0592	0.0182	-0.0073	-0.0462	0.0165	0.9585
42.649	15.704	249.2772	20.0674	-76.1741	-13.4987	251.8579	-49.7653	555.8075	-41.2748	215.262	69.6717	657.8226	-0.0592	0.0182	-0.0073	-0.0462	0.0165	0.9585
42.662	11.5937	206.4851	16.2351	-62.9175	-11.3211	209.25	-50.1939	576.6445	-43.9265	222.7767	72.6528	681.4625	-0.0592	0.0182	-0.0073	-0.0462	0.0165	0.9585
42.675	6.9948	167.1442	12.944	-50.7704	-9.7826	169.9337	-49.7562	599.6575	-47.0295	231.0833	75.7545	707.1392	-0.0592	0.0182	-0.0073	-0.0462	0.0165	0.9585
42.688	2.2273	132.2748	10.2379	-40.0354	-8.832	134.9633	-48.928	624.7876	-50.771	240.1686	79.3811	734.7787	-0.0592	0.0182	-0.0073	-0.0462	0.0165	0.9585
42.701	-2.2608	102.3927	8.0854	-30.8671	-8.2986	104.8614	-48.054	651.5572	-54.97	249.8768	83.4826	763.8164	-0.0592	0.0182	-0.0073	-0.0462	0.0165	0.9585
42.714	-6.0645	77.4451	6.428	-23.2435	-7.9928	79.6063	-47.2243	679.1093	-59.377	259.9151	87.8118	793.2313	-0.0592	0.0182	-0.0073	-0.0462	0.0165	0.9585
42.727	-8.8839	57.011	5.1397	-17.0306	-7.7011	58.8164	-46.3974	706.2803	-63.6118	269.8754	91.9236	821.6573	-0.0592	0.0182	-0.0073	-0.0462	0.0165	0.9585
42.74	-10.537	40.5325	4.112	-12.0503	-7.2678	41.9809	-45.4388	731.6908	-67.3524	279.2675	95.3944	847.4923	-0.0592	0.0182	-0.0073	-0.0462	0.0165	0.9585
42.753	-10.9153	27.4277	3.226	-8.1168	-6.5512	28.5548	-44.1728	753.9746	-70.3411	287.5931	97.8715	869.174	-0.0592	0.0182	-0.0073	-0.0462	0.0165	0.9585
42.766	-10.011	17.1736	2.4156	-5.0622	-5.4916	18.02	-42.4547	771.9518	-72.4612	294.4142	99.1744	885.3863	-0.0592	0.0182	-0.0073	-0.0462	0.0165	0.9585
42.779	-8.1232	9.4647	1.6592	-2.7835	-4.1717	10.0728	-40.1923	784.7963	-73.6651	299.4204	99.2258	895.237	-0.0592	0.0182	-0.0073	-0.0462	0.0165	0.9585
42.792	-5.8688	4.1097	1.0284	-1.2142	-2.8579	4.5337	-37.3697	792.2275	-73.981	302.5011	98.0543	898.4999	-0.0592	0.0182	-0.0073	-0.0462	0.0165	0.9585
42.805	-3.7215	0.7594	0.5549	-0.24466	-1.7313	1.0585	-34.0126	794.6013	-73.442	303.7807	95.7173	895.6787	-0.0592	0.0182	-0.0073	-0.0462	0.0165	0.9585
42.818	-1.9358	-1.0243	0.2349	0.26224	-0.86754	-0.79375	-30.2292	792.8858	-72.1246	303.6102	92.3424	887.9904	-0.0592	0.0182	-0.0073	-0.0462	0.0165	0.9585
42.831	-0.58796	-1.7133	0.039126	0.44944	-0.26241	-1.5212	-26.1608	788.4631	-70.168	302.4895	88.1473	877.116	-0.0592	0.0182	-0.0073	-0.0462	0.0165	0.9585
42.844	0.328	-1.7055	-0.067834	0.4361	0.12065	-1.5284	-21.9786	782.8314	-67.7925	300.9529	83.4459	864.854	-0.0592	0.0182	-0.0073	-0.0462	0.0165	0.9585
42.857	0.89791	-1.3033	-0.11223	0.31018	0.33343	-1.1329	-17.8762	777.3376	-65.2381	299.4772	78.572	852.8075	-0.0592	0.0182	-0.0073	-0.0462	0.0165	0.9585
42.87	1.1938	-0.72658	-0.12117	0.13514	0.42674	-0.54253	-14.0102	773.0486	-62.7332	298.4361	73.8331	842.2308	-0.0592	0.0182	-0.0073	-0.0462	0.0165	0.9585
42.883	1.3007	-0.13151	-0.11235	-0.045883	0.44743	0.07691	-10.4771	770.6581	-60.4578	298.0655	69.4666	833.9269	-0.0592	0.0182	-0.0073	-0.0462	0.0165	0.9585
42.896	1.2848	0.40438	-0.091693	-0.21119	0.42435	0.63994	-7.3037	770.3828	-58.54	298.4315	65.624	828.1376	-0.0592	0.0182	-0.0073	-0.0462	0.0165	0.9585
42.909	1.1957	0.83455	-0.065515	-0.34586	0.37918	1.0932	-4.4626	771.9878	-57.0441	299.4343	62.3622	824.5996	-0.0592	0.0182	-0.0073	-0.0462	0.0165	0.9585
42.922	1.0722	1.1263	-0.030399	-0.43658	0.31732	1.3923	-1.8829	774.8364	-55.9744	300.8258	59.6582	822.619	-0.0592	0.0182	-0.0073	-0.0462	0.0165	0.9585
42.935	0.924	1.2719	0.0068467	-0.47562	0.24423	1.5345	0.50857	777.9855	-55.2808	302.2462	57.4295	821.1901	-0.0592	0.0182	-0.0073	-0.0462	0.0165	0.9585
42.948	0.7789	1.227	0.05031	-0.44656	0.15959	1.4643	2.7684	780.3417	-54.8646	303.2841	55.5531	819.1714	-0.0592	0.0182	-0.0073	-0.0462	0.0165	0.9585
42.961	0.62654	0.93729	0.092349	-0.33311	0.064638	1.1289	4.928	780.8642	-54.6132	303.5471	53.906	815.4986	-0.0592	0.0182	-0.0073	-0.0462	0.0165	0.9585
42.974	0.47927	0.33335	0.14131	-0.11437	-0.046349	0.43627	6.9974	778.7817	-54.4139	302.746	52.3781	809.3908	-0.0592	0.0182	-0.0073	-0.0462	0.0165	0.9585
42.987	0.33798	-0.65506	0.18552	0.2322	-0.1579	-0.69451	8.9812	773.7905	-54.1783	300.7668	50.8866	800.5546	-0.0592	0.0182	-0.0073	-0.0462	0.0165	0.9585
43	0.21734	-2.0728	0.2233	0.72024	-0.25878	-2.3218	10.8979	766.0663	-53.8548	297.6772	49.3775	789.183	-0.0592	0.0182	-0.0073	-0.0462	0.0165	0.9585
43.013	0.15017	-3.8915	0.24129	1.3397	-0.32113	-4.4269	12.7708	756.1562	-53.4635	293.6831	47.8599	775.8414	-0.0592	0.0182	-0.0073	-0.0462	0.0165	0.9585
43.026	0.18136	-5.9736	0.21984	2.0451	-0.30228	-6.8513	14.6442	744.866	-53.0715	289.0882	46.3796	761.3368	-0.0592	0.0182	-0.0073	-0.0462	0.0165	0.9585
43.039	0.39926	-8.0084	0.12453	2.7296	-0.12953	-9.2434	16.5622	733.1601	-52.7895	284.2545	45.0241	746.6322	-0.0592	0.0182	-0.0073	-0.0462	0.0165	0.9585
43.052	0.8923	-9.4224	-0.083598	3.1967	0.2779	-10.9288	18.5611	722.0277	-52.7252	279.5576	43.8808	732.7138	-0.0592	0.0182	-0.0073	-0.0462	0.0165	0.9585
43.065	1.7898	-9.3412	-0.46111	3.1434	1.0305	-10.8906	20.658	712.3518	-52.9691	275.3382	43.0264	720.4644	-0.0592	0.0182	-0.0073	-0.0462	0.0165	0.9585
43.078	3.1977	-6.5095	-1.0615	2.1382	2.2283	-7.648	22.8331	704.7345	-53.5431	271.835	42.4868	710.4974	-0.0592	0.0182	-0.0073	-0.0462	0.0165	0.9585
43.091	5.2035	0.6981	-1.9315	-0.37878	3.9498	0.70637	25.0305	699.3177	-54.3989	269.1141	42.2317	702.9688	-0.0592	0.0182	-0.0073	-0.0462	0.0165	0.9585
43.104	7.797	14.1386	-3.0786	-5.046	6.1943	16.3665	27.1645	695.7043	-55.4266	267.0329	42.1836	697.5039	-0.0592	0.0182	-0.0073	-0.0462	0.0165	0.9585
43.117	10.7958	35.6527	-4.4521	-12.4879	8.8305	41.5086	29.1073	692.9293	-56.5041	265.2274	42.2747	693.1707	-0.0592	0.0182	-0.0073	-0.0462	0.0165	0.9585
43.13	13.7679	66.5425	-5.8736	-23.1339	11.4913	77.6828	30.633	689.5208	-57.4712	263.142	42.4353	688.563	-0.0592	0.0182	-0.0073	-0.0462	0.0165	0.9585
43.143	15.898	106.7674	-7.0112	-36.9431	13.4909	124.8791	31.478	683.6743	-58.1271	260.1014	42.5707	681.9577	-0.0592	0.0182	-0.0073	-0.0462	0.0165	0.9585
43.156	15.9956	153.9083	-7.3062	-53.0493	13.7588	180.2995	31.4083	673.5207	-58.2284	255.4186	42.5393	671.5675	-0.0592	0.0182	-0.0073	-0.0462	0.0165	0.9585
43.169	13.1651	202.5602	-6.0952	-69.5576	11.2191	237.6559	30.3037	657.548	-57.5538	248.556	42.1814	655.9167	-0.0592	0.0182	-0.0073	-0.0462	0.0165	0.9585
43.182	8.2804	245.6348	-2.734	-84.0214	5.4863	288.5841	28.2639	635.1642	-55.9946	239.3302	41.3706	634.3449	-0.0592	0.0182	-0.0073	-0.0462	0.0165	0.9585
43.195	3.0007	279.0088	2.2539	-95.0574	-2.229	328.0086	25.6415	607.0902	-53.6541	228.0418	40.089	607.3969	-0.0592	0.0182	-0.0073	-0.0462	0.0165	0.9585
43.208	-1.715	303.0963	8.0501	-102.8517	-10.6365	356.218	22.9215	574.9831	-50.8427	215.3332	38.4542	576.4975	-0.0592	0.0182	-0.0073	-0.0462	0.0165	0.9585
43.221	-5.6075	321.1012	13.9743	-108.5504	-18.8455	376.9792	20.5662	540.6266	-47.8955	201.8869	36.6068	543.2069	-0.0592	0.0182	-0.0073	-0.0462	0.0165	0.9585
